# xmcd CD database file
#
# Track frame offsets:
#	150
#	15685
#	30478
#	52765
#	65748
#	85502
#	101584
#	123443
#	146143
#	169467
#	183729
#	200778
#	214463
#	235117
#
# Disc length: 3338 seconds
#
# Revision: 0
# Processed by: cddbd v1.5PL3 Copyright (c) Steve Scherf et al.
# Submitted via: CDex 1.51
#
DISCID=cd0d080e
DTITLE=Tal Farlow - Tal's Blues
DYEAR=2002
DGENRE=Jazz
TTITLE0=Strike up the band
TTITLE1=Skylark
TTITLE2=Have you met miss jones?
TTITLE3=Tenderly
TTITLE4=And she remembers me
TTITLE5=My old flame
TTITLE6=Cherokee
TTITLE7=Autumn in New York
TTITLE8=Tal's blues
TTITLE9=I like to recognize the tune
TTITLE10=There will never be another you
TTITLE11=Just one of those things
TTITLE12=Tenderly
TTITLE13=It's you or no one
EXTD=YEAR: 2002
EXTT0=
EXTT1=
EXTT2=
EXTT3=
EXTT4=
EXTT5=
EXTT6=
EXTT7=
EXTT8=
EXTT9=
EXTT10=
EXTT11=
EXTT12=
EXTT13=
PLAYORDER=
